<?xml version="1.0" encoding="UTF-8"?>
<!DOCTYPE svg PUBLIC "-//W3C//DTD SVG 1.1//EN" "http://www.w3.org/Graphics/SVG/1.1/DTD/svg11.dtd">
<svg xmlns="http://www.w3.org/2000/svg" version="1.1" width="100px" height="100px" style="shape-rendering:geometricPrecision; text-rendering:geometricPrecision; image-rendering:optimizeQuality; fill-rule:evenodd; clip-rule:evenodd" xmlns:xlink="http://www.w3.org/1999/xlink">
<g><path style="opacity:0.961" fill="#f0bb19" d="M 79.5,10.5 C 86.1584,9.34448 88.1584,11.8445 85.5,18C 78.7496,19.4689 76.7496,16.9689 79.5,10.5 Z"/></g>
<g><path style="opacity:0.765" fill="#f0bb17" d="M 75.5,11.5 C 77.337,11.6395 77.6704,12.3061 76.5,13.5C 75.7025,13.0431 75.3691,12.3764 75.5,11.5 Z"/></g>
<g><path style="opacity:0.976" fill="#e5ecb6" d="M 78.5,73.5 C 77.8333,73.5 77.5,73.8333 77.5,74.5C 67.4123,85.0265 55.079,88.8598 40.5,86C 29.4791,83.0176 21.4791,76.5176 16.5,66.5C 19.9157,61.513 18.5824,58.8463 12.5,58.5C 10.8095,26.0234 26.1429,10.8568 58.5,13C 80.274,20.3598 89.4407,35.5265 86,58.5C 84.541,64.0848 82.041,69.0848 78.5,73.5 Z"/></g>
<g><path style="opacity:0.766" fill="#87ad44" d="M 84.5,21.5 C 85.8333,21.5 87.1667,21.5 88.5,21.5C 88.5,22.8333 88.5,24.1667 88.5,25.5C 87.1667,25.5 85.8333,25.5 84.5,25.5C 84.5,24.1667 84.5,22.8333 84.5,21.5 Z"/></g>
<g><path style="opacity:1" fill="#8d7746" d="M 63.5,22.5 C 66.5717,23.3013 68.2384,25.3013 68.5,28.5C 67.8333,28.8333 67.1667,29.1667 66.5,29.5C 66.7035,27.6096 66.0368,26.1096 64.5,25C 54.5056,24.5002 44.5056,24.3335 34.5,24.5C 44.1667,23.8333 53.8333,23.1667 63.5,22.5 Z"/></g>
<g><path style="opacity:1" fill="#f8e45b" d="M 34.5,24.5 C 44.5056,24.3335 54.5056,24.5002 64.5,25C 66.0368,26.1096 66.7035,27.6096 66.5,29.5C 62.7307,29.756 59.0641,29.4227 55.5,28.5C 51.1667,27.1667 46.8333,27.1667 42.5,28.5C 38.9359,29.4227 35.2693,29.756 31.5,29.5C 31.2591,26.9664 32.2591,25.2998 34.5,24.5 Z"/></g>
<g><path style="opacity:1" fill="#c34a58" d="M 55.5,28.5 C 55.5,29.5 55.5,30.5 55.5,31.5C 51.1667,31.5 46.8333,31.5 42.5,31.5C 42.5,30.5 42.5,29.5 42.5,28.5C 46.8333,27.1667 51.1667,27.1667 55.5,28.5 Z"/></g>
<g><path style="opacity:1" fill="#50352f" d="M 63.5,22.5 C 53.8333,23.1667 44.1667,23.8333 34.5,24.5C 32.2591,25.2998 31.2591,26.9664 31.5,29.5C 35.2693,29.756 38.9359,29.4227 42.5,28.5C 42.5,29.5 42.5,30.5 42.5,31.5C 38.6002,30.5701 34.6002,30.2367 30.5,30.5C 30.5,35.8333 30.5,41.1667 30.5,46.5C 29.8333,46.1667 29.1667,45.8333 28.5,45.5C 26.0503,45.1257 25.0503,43.6257 25.5,41C 24.9324,37.7366 26.2657,36.2366 29.5,36.5C 29.335,33.1501 29.5017,29.8168 30,26.5C 30.5,24.6667 31.6667,23.5 33.5,23C 43.4944,22.5002 53.4944,22.3335 63.5,22.5 Z"/></g>
<g><path style="opacity:1" fill="#78cbd1" d="M 42.5,31.5 C 44.8422,32.0082 47.0088,33.0082 49,34.5C 50.9912,33.0082 53.1578,32.0082 55.5,31.5C 59.3998,30.5701 63.3998,30.2367 67.5,30.5C 67.5,35.5 67.5,40.5 67.5,45.5C 68.067,48.9114 66.7337,50.9114 63.5,51.5C 60.8537,46.9882 57.8537,46.6549 54.5,50.5C 52.9547,51.4519 51.288,51.7852 49.5,51.5C 49.1667,36.8333 48.8333,36.8333 48.5,51.5C 42.7876,51.687 37.1209,51.3537 31.5,50.5C 30.7659,49.2921 30.4326,47.9587 30.5,46.5C 30.5,41.1667 30.5,35.8333 30.5,30.5C 34.6002,30.2367 38.6002,30.5701 42.5,31.5 Z"/></g>
<g><path style="opacity:1" fill="#492e2b" d="M 55.5,28.5 C 59.0641,29.4227 62.7307,29.756 66.5,29.5C 67.1667,29.1667 67.8333,28.8333 68.5,28.5C 68.5,31.1667 68.5,33.8333 68.5,36.5C 69.791,36.2627 70.791,36.596 71.5,37.5C 70.5,37.5 69.5,37.5 68.5,37.5C 68.3379,39.5273 68.5045,41.5273 69,43.5C 69.6708,44.2524 70.5041,44.5858 71.5,44.5C 71.1583,45.3382 70.4916,45.6716 69.5,45.5C 68.8333,45.5 68.1667,45.5 67.5,45.5C 67.5,40.5 67.5,35.5 67.5,30.5C 63.3998,30.2367 59.3998,30.5701 55.5,31.5C 55.5,30.5 55.5,29.5 55.5,28.5 Z"/></g>
<g><path style="opacity:1" fill="#4a302f" d="M 42.5,31.5 C 46.8333,31.5 51.1667,31.5 55.5,31.5C 53.1578,32.0082 50.9912,33.0082 49,34.5C 47.0088,33.0082 44.8422,32.0082 42.5,31.5 Z"/></g>
<g><path style="opacity:1" fill="#806f75" d="M 71.5,37.5 C 72.8333,39.8333 72.8333,42.1667 71.5,44.5C 70.5041,44.5858 69.6708,44.2524 69,43.5C 68.5045,41.5273 68.3379,39.5273 68.5,37.5C 69.5,37.5 70.5,37.5 71.5,37.5 Z"/></g>
<g><path style="opacity:1" fill="#887981" d="M 27.5,37.5 C 28.7251,38.1522 29.3917,39.3189 29.5,41C 28.7095,45.4481 27.7095,45.4481 26.5,41C 26.6483,39.7441 26.9816,38.5774 27.5,37.5 Z"/></g>
<g><path style="opacity:1" fill="#4f3935" d="M 63.5,51.5 C 63.5,51.8333 63.5,52.1667 63.5,52.5C 53.4944,52.6665 43.4944,52.4998 33.5,52C 32.5842,51.7216 31.9175,51.2216 31.5,50.5C 37.1209,51.3537 42.7876,51.687 48.5,51.5C 48.8333,36.8333 49.1667,36.8333 49.5,51.5C 51.288,51.7852 52.9547,51.4519 54.5,50.5C 57.8537,46.6549 60.8537,46.9882 63.5,51.5 Z"/></g>
<g><path style="opacity:1" fill="#fcfcf7" d="M 16.5,48.5 C 20.1612,48.3501 21.1612,49.8501 19.5,53C 15.7071,53.4866 14.7071,51.9866 16.5,48.5 Z"/></g>
<g><path style="opacity:1" fill="#77cbd1" d="M 56.5,49.5 C 58.4286,49.2308 60.0953,49.7308 61.5,51C 59.5,51.6667 57.5,51.6667 55.5,51C 56.056,50.6174 56.3893,50.1174 56.5,49.5 Z"/></g>
<g><path style="opacity:1" fill="#806f4a" d="M 67.5,45.5 C 68.1667,45.5 68.8333,45.5 69.5,45.5C 69.5,48.5 69.5,51.5 69.5,54.5C 68.8333,57.5 68.1667,60.5 67.5,63.5C 67.5,59.5 67.5,55.5 67.5,51.5C 66.0413,51.4326 64.7079,51.7659 63.5,52.5C 63.5,52.1667 63.5,51.8333 63.5,51.5C 66.7337,50.9114 68.067,48.9114 67.5,45.5 Z"/></g>
<g><path style="opacity:1" fill="#dfca55" d="M 31.5,50.5 C 31.9175,51.2216 32.5842,51.7216 33.5,52C 43.4944,52.4998 53.4944,52.6665 63.5,52.5C 64.7079,51.7659 66.0413,51.4326 67.5,51.5C 67.5,55.5 67.5,59.5 67.5,63.5C 67.3893,64.1174 67.056,64.6174 66.5,65C 54.8333,65.6667 43.1667,65.6667 31.5,65C 30.944,64.6174 30.6107,64.1174 30.5,63.5C 30.1818,58.9677 30.5151,54.6344 31.5,50.5 Z"/></g>
<g><path style="opacity:1" fill="#816d4c" d="M 28.5,45.5 C 29.1667,45.8333 29.8333,46.1667 30.5,46.5C 30.4326,47.9587 30.7659,49.2921 31.5,50.5C 30.5151,54.6344 30.1818,58.9677 30.5,63.5C 29.8333,61.5 29.1667,59.5 28.5,57.5C 28.5,53.5 28.5,49.5 28.5,45.5 Z"/></g>
<g><path style="opacity:0.961" fill="#facd5a" d="M 12.5,58.5 C 18.5824,58.8463 19.9157,61.513 16.5,66.5C 10.9334,67.2468 9.10005,64.9134 11,59.5C 11.3826,58.944 11.8826,58.6107 12.5,58.5 Z"/></g>
<g><path style="opacity:1" fill="#4c312c" d="M 69.5,54.5 C 69.665,57.8499 69.4983,61.1832 69,64.5C 66.3408,66.0602 65.1741,68.3935 65.5,71.5C 57.4931,72.8464 55.1597,72.8464 58.5,71.5C 58.5,69.8333 58.5,68.1667 58.5,66.5C 52.1667,66.5 45.8333,66.5 39.5,66.5C 39.5,68.1667 39.5,69.8333 39.5,71.5C 37.1667,72.8333 34.8333,72.8333 32.5,71.5C 32.8259,68.3935 31.6592,66.0602 29,64.5C 28.5034,62.1902 28.3367,59.8568 28.5,57.5C 29.1667,59.5 29.8333,61.5 30.5,63.5C 30.6107,64.1174 30.944,64.6174 31.5,65C 43.1667,65.6667 54.8333,65.6667 66.5,65C 67.056,64.6174 67.3893,64.1174 67.5,63.5C 68.1667,60.5 68.8333,57.5 69.5,54.5 Z"/></g>
<g><path style="opacity:1" fill="#523a32" d="M 60.5,58.5 C 59.9094,59.1515 59.2427,59.8182 58.5,60.5C 60.396,61.4656 62.396,61.7989 64.5,61.5C 62.3926,62.4682 60.0593,62.8016 57.5,62.5C 57.5,61.1667 57.5,59.8333 57.5,58.5C 58.5,58.5 59.5,58.5 60.5,58.5 Z"/></g>
<g><path style="opacity:1" fill="#84c2cb" d="M 60.5,58.5 C 61.8333,58.5 63.1667,58.5 64.5,58.5C 64.5,59.5 64.5,60.5 64.5,61.5C 62.396,61.7989 60.396,61.4656 58.5,60.5C 59.2427,59.8182 59.9094,59.1515 60.5,58.5 Z"/></g>
<g><path style="opacity:1" fill="#674e36" d="M 60.5,58.5 C 61.9187,57.5489 63.5853,57.2155 65.5,57.5C 65.7678,59.099 65.4345,60.4324 64.5,61.5C 64.5,60.5 64.5,59.5 64.5,58.5C 63.1667,58.5 61.8333,58.5 60.5,58.5 Z"/></g>
<g><path style="opacity:1" fill="#5d483b" d="M 33.5,61.5 C 32.5655,60.4324 32.2322,59.099 32.5,57.5C 35.1667,57.8333 37.8333,58.1667 40.5,58.5C 40.5,59.8333 40.5,61.1667 40.5,62.5C 37.9407,62.8016 35.6074,62.4682 33.5,61.5 Z"/></g>
<g><path style="opacity:1" fill="#85c7d0" d="M 33.5,61.5 C 33.281,60.325 33.6143,59.325 34.5,58.5C 41.0145,60.381 40.6811,61.381 33.5,61.5 Z"/></g>
<g><path style="opacity:1" fill="#9a8f9a" d="M 33.5,66.5 C 35.1667,66.5 36.8333,66.5 38.5,66.5C 38.5,68.1667 38.5,69.8333 38.5,71.5C 36.8333,71.5 35.1667,71.5 33.5,71.5C 33.5,69.8333 33.5,68.1667 33.5,66.5 Z"/></g>
<g><path style="opacity:1" fill="#9a8f9a" d="M 59.5,66.5 C 61.1667,66.5 62.8333,66.5 64.5,66.5C 64.5,68.1667 64.5,69.8333 64.5,71.5C 62.8333,71.5 61.1667,71.5 59.5,71.5C 59.5,69.8333 59.5,68.1667 59.5,66.5 Z"/></g>
<g><path style="opacity:0.835" fill="#facf5a" d="M 77.5,74.5 C 77.5,73.8333 77.8333,73.5 78.5,73.5C 79.8333,73.5 81.1667,73.5 82.5,73.5C 82.5,74.8333 82.5,76.1667 82.5,77.5C 81.1667,77.5 79.8333,77.5 78.5,77.5C 78.7373,76.209 78.404,75.209 77.5,74.5 Z"/></g>
<g><path style="opacity:0.766" fill="#87ad44" d="M 22.5,84.5 C 23.8333,84.5 25.1667,84.5 26.5,84.5C 26.5,85.8333 26.5,87.1667 26.5,88.5C 25.1667,88.5 23.8333,88.5 22.5,88.5C 22.5,87.1667 22.5,85.8333 22.5,84.5 Z"/></g>
</svg>
