<?xml version="1.0" encoding="UTF-8"?>
<!DOCTYPE svg PUBLIC "-//W3C//DTD SVG 1.1//EN" "http://www.w3.org/Graphics/SVG/1.1/DTD/svg11.dtd">
<svg xmlns="http://www.w3.org/2000/svg" version="1.1" width="100px" height="100px" style="shape-rendering:geometricPrecision; text-rendering:geometricPrecision; image-rendering:optimizeQuality; fill-rule:evenodd; clip-rule:evenodd" xmlns:xlink="http://www.w3.org/1999/xlink">
<g><path style="opacity:0.961" fill="#f0bb19" d="M 79.5,10.5 C 86.1584,9.34448 88.1584,11.8445 85.5,18C 78.7496,19.4689 76.7496,16.9689 79.5,10.5 Z"/></g>
<g><path style="opacity:0.765" fill="#f0bb17" d="M 75.5,11.5 C 77.337,11.6395 77.6704,12.3061 76.5,13.5C 75.7025,13.0431 75.3691,12.3764 75.5,11.5 Z"/></g>
<g><path style="opacity:0.978" fill="#e4ebb5" d="M 78.5,73.5 C 77.8333,73.5 77.5,73.8333 77.5,74.5C 67.4123,85.0265 55.079,88.8598 40.5,86C 29.4791,83.0176 21.4791,76.5176 16.5,66.5C 19.9157,61.513 18.5824,58.8463 12.5,58.5C 10.8095,26.0234 26.1429,10.8568 58.5,13C 80.274,20.3598 89.4407,35.5265 86,58.5C 84.541,64.0848 82.041,69.0848 78.5,73.5 Z"/></g>
<g><path style="opacity:0.766" fill="#9f7f65" d="M 84.5,21.5 C 85.8333,21.5 87.1667,21.5 88.5,21.5C 88.5,22.8333 88.5,24.1667 88.5,25.5C 87.1667,25.5 85.8333,25.5 84.5,25.5C 84.5,24.1667 84.5,22.8333 84.5,21.5 Z"/></g>
<g><path style="opacity:1" fill="#503430" d="M 71.5,51.5 C 71.5858,50.5041 71.2524,49.6708 70.5,49C 68.5087,48.6264 66.842,47.793 65.5,46.5C 67.4228,42.9707 68.0894,38.9707 67.5,34.5C 60.1591,34.6663 52.8258,34.4997 45.5,34C 50.1548,33.5008 54.8215,33.3342 59.5,33.5C 59.5,31.5 59.5,29.5 59.5,27.5C 53.1667,27.5 46.8333,27.5 40.5,27.5C 40.5,29.5 40.5,31.5 40.5,33.5C 40.1211,34.7241 37.4544,35.0574 32.5,34.5C 32.1758,38.5546 32.5091,42.5546 33.5,46.5C 34.7362,45.7542 36.0695,45.4208 37.5,45.5C 35.8984,47.0739 33.8984,47.7406 31.5,47.5C 31.5,42.8333 31.5,38.1667 31.5,33.5C 34.1667,33.5 36.8333,33.5 39.5,33.5C 39.5,31.1667 39.5,28.8333 39.5,26.5C 42.5,26.5 45.5,26.5 48.5,26.5C 48.5,23.5 48.5,20.5 48.5,17.5C 49.5,17.5 50.5,17.5 51.5,17.5C 51.5,20.5 51.5,23.5 51.5,26.5C 54.5,26.5 57.5,26.5 60.5,26.5C 60.5,28.8333 60.5,31.1667 60.5,33.5C 63.1667,33.5 65.8333,33.5 68.5,33.5C 68.5,38.1667 68.5,42.8333 68.5,47.5C 72.0348,47.3369 73.0348,48.6702 71.5,51.5 Z"/></g>
<g><path style="opacity:1" fill="#fdfdfd" d="M 65.5,46.5 C 64.791,45.596 63.791,45.2627 62.5,45.5C 59.2034,43.3987 55.5368,42.0653 51.5,41.5C 51.5,40.8333 51.1667,40.5 50.5,40.5C 50.1667,40.5 49.8333,40.5 49.5,40.5C 45.2663,41.7945 41.2663,43.4612 37.5,45.5C 36.0695,45.4208 34.7362,45.7542 33.5,46.5C 32.5091,42.5546 32.1758,38.5546 32.5,34.5C 37.4544,35.0574 40.1211,34.7241 40.5,33.5C 40.5,31.5 40.5,29.5 40.5,27.5C 46.8333,27.5 53.1667,27.5 59.5,27.5C 59.5,29.5 59.5,31.5 59.5,33.5C 54.8215,33.3342 50.1548,33.5008 45.5,34C 52.8258,34.4997 60.1591,34.6663 67.5,34.5C 68.0894,38.9707 67.4228,42.9707 65.5,46.5 Z"/></g>
<g><path style="opacity:1" fill="#9f999d" d="M 42.5,29.5 C 43.5,29.5 44.5,29.5 45.5,29.5C 45.5,30.5 45.5,31.5 45.5,32.5C 44.5,32.5 43.5,32.5 42.5,32.5C 42.5,31.5 42.5,30.5 42.5,29.5 Z"/></g>
<g><path style="opacity:1" fill="#9f999d" d="M 48.5,29.5 C 49.5,29.5 50.5,29.5 51.5,29.5C 51.5,30.5 51.5,31.5 51.5,32.5C 50.5,32.5 49.5,32.5 48.5,32.5C 48.5,31.5 48.5,30.5 48.5,29.5 Z"/></g>
<g><path style="opacity:1" fill="#9f999d" d="M 54.5,29.5 C 55.5,29.5 56.5,29.5 57.5,29.5C 57.5,30.5 57.5,31.5 57.5,32.5C 56.5,32.5 55.5,32.5 54.5,32.5C 54.5,31.5 54.5,30.5 54.5,29.5 Z"/></g>
<g><path style="opacity:1" fill="#9f999d" d="M 36.5,36.5 C 37.5,36.5 38.5,36.5 39.5,36.5C 39.5,37.5 39.5,38.5 39.5,39.5C 38.5,39.5 37.5,39.5 36.5,39.5C 36.5,38.5 36.5,37.5 36.5,36.5 Z"/></g>
<g><path style="opacity:1" fill="#9f999d" d="M 42.5,36.5 C 43.5,36.5 44.5,36.5 45.5,36.5C 45.5,37.5 45.5,38.5 45.5,39.5C 44.5,39.5 43.5,39.5 42.5,39.5C 42.5,38.5 42.5,37.5 42.5,36.5 Z"/></g>
<g><path style="opacity:1" fill="#9f999d" d="M 48.5,36.5 C 49.5,36.5 50.5,36.5 51.5,36.5C 51.5,37.5 51.5,38.5 51.5,39.5C 50.5,39.5 49.5,39.5 48.5,39.5C 48.5,38.5 48.5,37.5 48.5,36.5 Z"/></g>
<g><path style="opacity:1" fill="#9f999d" d="M 54.5,36.5 C 55.5,36.5 56.5,36.5 57.5,36.5C 57.5,37.5 57.5,38.5 57.5,39.5C 56.5,39.5 55.5,39.5 54.5,39.5C 54.5,38.5 54.5,37.5 54.5,36.5 Z"/></g>
<g><path style="opacity:1" fill="#9f999d" d="M 60.5,36.5 C 61.5,36.5 62.5,36.5 63.5,36.5C 63.5,37.5 63.5,38.5 63.5,39.5C 62.5,39.5 61.5,39.5 60.5,39.5C 60.5,38.5 60.5,37.5 60.5,36.5 Z"/></g>
<g><path style="opacity:1" fill="#fcfcf7" d="M 17.5,40.5 C 21.1612,40.3501 22.1612,41.8501 20.5,45C 16.7071,45.4866 15.7071,43.9866 17.5,40.5 Z"/></g>
<g><path style="opacity:1" fill="#492e2b" d="M 49.5,40.5 C 49.8333,40.5 50.1667,40.5 50.5,40.5C 50.5,48.5 50.5,56.5 50.5,64.5C 51.5,64.5 52.5,64.5 53.5,64.5C 51.1667,65.8333 48.8333,65.8333 46.5,64.5C 47.5,64.5 48.5,64.5 49.5,64.5C 49.5,57.1667 49.5,49.8333 49.5,42.5C 49.5,41.8333 49.5,41.1667 49.5,40.5 Z"/></g>
<g><path style="opacity:1" fill="#726469" d="M 49.5,40.5 C 49.5,41.1667 49.5,41.8333 49.5,42.5C 45.4848,43.5119 41.4848,44.5119 37.5,45.5C 41.2663,43.4612 45.2663,41.7945 49.5,40.5 Z"/></g>
<g><path style="opacity:1" fill="#9eacc2" d="M 49.5,42.5 C 49.5,49.8333 49.5,57.1667 49.5,64.5C 48.5,64.5 47.5,64.5 46.5,64.5C 42.1749,65.5081 37.8415,65.5081 33.5,64.5C 33.5979,62.4471 32.9313,60.7804 31.5,59.5C 31.2671,56.4582 30.2671,53.7916 28.5,51.5C 26.9652,48.6702 27.9652,47.3369 31.5,47.5C 33.8984,47.7406 35.8984,47.0739 37.5,45.5C 41.4848,44.5119 45.4848,43.5119 49.5,42.5 Z"/></g>
<g><path style="opacity:1" fill="#8483b0" d="M 50.5,40.5 C 51.1667,40.5 51.5,40.8333 51.5,41.5C 54.7966,43.6013 58.4632,44.9347 62.5,45.5C 63.791,45.2627 64.791,45.596 65.5,46.5C 66.842,47.793 68.5087,48.6264 70.5,49C 71.2524,49.6708 71.5858,50.5041 71.5,51.5C 71.0198,54.4432 70.0198,57.1098 68.5,59.5C 67.0687,60.7804 66.4021,62.4471 66.5,64.5C 64.059,65.7563 61.7257,65.7563 59.5,64.5C 57.5,61.8333 55.5,61.8333 53.5,64.5C 52.5,64.5 51.5,64.5 50.5,64.5C 50.5,56.5 50.5,48.5 50.5,40.5 Z"/></g>
<g><path style="opacity:1" fill="#68555d" d="M 51.5,41.5 C 55.5368,42.0653 59.2034,43.3987 62.5,45.5C 58.4632,44.9347 54.7966,43.6013 51.5,41.5 Z"/></g>
<g><path style="opacity:1" fill="#4e3535" d="M 40.5,47.5 C 42.9238,49.2276 43.0904,51.2276 41,53.5C 39.2002,51.6349 39.0336,49.6349 40.5,47.5 Z"/></g>
<g><path style="opacity:1" fill="#4d3336" d="M 58.5,47.5 C 60.9238,49.2276 61.0904,51.2276 59,53.5C 57.2002,51.6349 57.0336,49.6349 58.5,47.5 Z"/></g>
<g><path style="opacity:1" fill="#6c5c5a" d="M 28.5,51.5 C 30.2671,53.7916 31.2671,56.4582 31.5,59.5C 29.7329,57.2084 28.7329,54.5418 28.5,51.5 Z"/></g>
<g><path style="opacity:0.961" fill="#facd5a" d="M 12.5,58.5 C 18.5824,58.8463 19.9157,61.513 16.5,66.5C 10.9334,67.2468 9.10005,64.9134 11,59.5C 11.3826,58.944 11.8826,58.6107 12.5,58.5 Z"/></g>
<g><path style="opacity:1" fill="#705d56" d="M 59.5,64.5 C 57.5,64.5 55.5,64.5 53.5,64.5C 55.5,61.8333 57.5,61.8333 59.5,64.5 Z"/></g>
<g><path style="opacity:1" fill="#644e46" d="M 68.5,59.5 C 69.5284,62.7144 71.8618,64.5477 75.5,65C 72.5248,65.0435 69.5248,64.8769 66.5,64.5C 66.4021,62.4471 67.0687,60.7804 68.5,59.5 Z"/></g>
<g><path style="opacity:1" fill="#776656" d="M 31.5,59.5 C 32.9313,60.7804 33.5979,62.4471 33.5,64.5C 30.5071,65.1346 27.5071,65.3013 24.5,65C 26.5,64.3333 28.5,63.6667 30.5,63C 31.3366,61.9887 31.67,60.8221 31.5,59.5 Z"/></g>
<g><path style="opacity:1" fill="#84755f" d="M 24.5,69.5 C 26.2632,68.6655 27.9299,69.1655 29.5,71C 27.7184,71.1218 26.0518,70.6218 24.5,69.5 Z"/></g>
<g><path style="opacity:1" fill="#6f5b4c" d="M 47.5,70.5 C 42.2956,70.7881 36.9623,70.9547 31.5,71C 33.6147,70.4427 35.6147,69.6094 37.5,68.5C 40.6596,70.0267 43.993,70.6933 47.5,70.5 Z"/></g>
<g><path style="opacity:1" fill="#705c4d" d="M 47.5,70.5 C 48.2613,69.6091 49.2613,68.9424 50.5,68.5C 54.8022,71.0652 59.1355,71.0652 63.5,68.5C 65.3853,69.6094 67.3853,70.4427 69.5,71C 62.2062,71.4871 54.8728,71.3204 47.5,70.5 Z"/></g>
<g><path style="opacity:0.835" fill="#facf5a" d="M 77.5,74.5 C 77.5,73.8333 77.8333,73.5 78.5,73.5C 79.8333,73.5 81.1667,73.5 82.5,73.5C 82.5,74.8333 82.5,76.1667 82.5,77.5C 81.1667,77.5 79.8333,77.5 78.5,77.5C 78.7373,76.209 78.404,75.209 77.5,74.5 Z"/></g>
<g><path style="opacity:1" fill="#685246" d="M 45.5,75.5 C 40.7101,78.3167 36.0435,78.15 31.5,75C 33.7455,75.4279 36.0789,75.9279 38.5,76.5C 40.6885,76.4061 42.6885,75.7394 44.5,74.5C 45.1067,74.6236 45.44,74.9569 45.5,75.5 Z"/></g>
<g><path style="opacity:1" fill="#614a40" d="M 45.5,75.5 C 48.4552,76.1587 51.4552,76.4921 54.5,76.5C 53.5514,77.1524 52.3847,77.4857 51,77.5C 48.7794,77.6068 46.9461,76.9402 45.5,75.5 Z"/></g>
<g><path style="opacity:1" fill="#715e4e" d="M 54.5,76.5 C 55.2613,75.6091 56.2613,74.9424 57.5,74.5C 59.6666,75.7919 61.9999,76.6253 64.5,77C 61.1745,77.1719 57.8411,77.0053 54.5,76.5 Z"/></g>
<g><path style="opacity:1" fill="#8b7e66" d="M 69.5,74.5 C 70.8847,75.3023 70.718,75.9689 69,76.5C 67.8382,77.1868 66.6716,77.3534 65.5,77C 66.8584,76.0656 68.1917,75.2323 69.5,74.5 Z"/></g>
<g><path style="opacity:0.766" fill="#9f7f65" d="M 22.5,84.5 C 23.8333,84.5 25.1667,84.5 26.5,84.5C 26.5,85.8333 26.5,87.1667 26.5,88.5C 25.1667,88.5 23.8333,88.5 22.5,88.5C 22.5,87.1667 22.5,85.8333 22.5,84.5 Z"/></g>
</svg>
