<?xml version="1.0" encoding="UTF-8"?>
<!DOCTYPE svg PUBLIC "-//W3C//DTD SVG 1.1//EN" "http://www.w3.org/Graphics/SVG/1.1/DTD/svg11.dtd">
<svg xmlns="http://www.w3.org/2000/svg" version="1.1" width="100px" height="100px" style="shape-rendering:geometricPrecision; text-rendering:geometricPrecision; image-rendering:optimizeQuality; fill-rule:evenodd; clip-rule:evenodd" xmlns:xlink="http://www.w3.org/1999/xlink">
<g><path style="opacity:0.961" fill="#f0bb19" d="M 79.5,10.5 C 86.1584,9.34448 88.1584,11.8445 85.5,18C 78.7496,19.4689 76.7496,16.9689 79.5,10.5 Z"/></g>
<g><path style="opacity:0.765" fill="#f0bb17" d="M 75.5,11.5 C 77.337,11.6395 77.6704,12.3061 76.5,13.5C 75.7025,13.0431 75.3691,12.3764 75.5,11.5 Z"/></g>
<g><path style="opacity:0.98" fill="#fadea0" d="M 78.5,73.5 C 77.8333,73.5 77.5,73.8333 77.5,74.5C 67.4123,85.0265 55.079,88.8598 40.5,86C 29.4791,83.0176 21.4791,76.5176 16.5,66.5C 19.9157,61.513 18.5824,58.8463 12.5,58.5C 10.8095,26.0234 26.1429,10.8568 58.5,13C 80.274,20.3598 89.4407,35.5265 86,58.5C 84.541,64.0848 82.041,69.0848 78.5,73.5 Z"/></g>
<g><path style="opacity:0.878" fill="#ed3d53" d="M 84.5,21.5 C 85.8333,21.5 87.1667,21.5 88.5,21.5C 88.5,22.8333 88.5,24.1667 88.5,25.5C 87.1667,25.5 85.8333,25.5 84.5,25.5C 84.5,24.1667 84.5,22.8333 84.5,21.5 Z"/></g>
<g><path style="opacity:0.878" fill="#ed3d53" d="M 10.5,26.5 C 11.8333,26.5 13.1667,26.5 14.5,26.5C 14.5,27.8333 14.5,29.1667 14.5,30.5C 13.1667,30.5 11.8333,30.5 10.5,30.5C 10.5,29.1667 10.5,27.8333 10.5,26.5 Z"/></g>
<g><path style="opacity:1" fill="#84c2cb" d="M 61.5,61.5 C 62.4345,62.5676 62.7678,63.901 62.5,65.5C 62.1459,67.5412 62.1459,69.3745 62.5,71C 61.8333,71.6667 61.1667,71.6667 60.5,71C 57.6097,66.9498 54.943,62.7832 52.5,58.5C 53.4132,56.9139 53.4132,55.4139 52.5,54C 54.0074,53.1627 54.5074,51.9961 54,50.5C 52.6244,51.7051 51.4577,53.0384 50.5,54.5C 46.7623,56.697 43.429,59.3637 40.5,62.5C 40.3246,65.6934 39.9912,69.0267 39.5,72.5C 37.9574,69.914 36.2907,67.414 34.5,65C 36.9535,63.2599 38.4535,61.0933 39,58.5C 37.3163,60.3513 35.4829,62.018 33.5,63.5C 30.8333,61.8333 28.1667,60.1667 25.5,58.5C 29.08,58.2577 32.7467,58.091 36.5,58C 38.9554,54.9223 41.2887,51.7556 43.5,48.5C 37.6204,44.7335 31.9537,40.7335 26.5,36.5C 27.3333,36.1667 28.1667,35.8333 29,35.5C 36.6873,38.0499 44.5206,39.5499 52.5,40C 56.1667,36.3333 59.8333,32.6667 63.5,29C 65.8098,28.5034 68.1432,28.3367 70.5,28.5C 70.628,30.6547 70.128,32.6547 69,34.5C 64.1329,39.0323 59.6329,43.8656 55.5,49C 56.448,49.4828 57.448,49.6495 58.5,49.5C 58.8984,53.7607 59.8984,57.7607 61.5,61.5 Z"/></g>
<g><path style="opacity:1" fill="#fefbf5" d="M 16.5,50.5 C 20.1612,50.3501 21.1612,51.8501 19.5,55C 15.7071,55.4866 14.7071,53.9866 16.5,50.5 Z"/></g>
<g><path style="opacity:0.957" fill="#facd5a" d="M 12.5,58.5 C 18.5824,58.8463 19.9157,61.513 16.5,66.5C 10.9334,67.2468 9.10005,64.9134 11,59.5C 11.3826,58.944 11.8826,58.6107 12.5,58.5 Z"/></g>
<g><path style="opacity:1" fill="#594540" d="M 61.5,61.5 C 59.8984,57.7607 58.8984,53.7607 58.5,49.5C 57.448,49.6495 56.448,49.4828 55.5,49C 59.6329,43.8656 64.1329,39.0323 69,34.5C 70.128,32.6547 70.628,30.6547 70.5,28.5C 68.1432,28.3367 65.8098,28.5034 63.5,29C 59.8333,32.6667 56.1667,36.3333 52.5,40C 44.5206,39.5499 36.6873,38.0499 29,35.5C 28.1667,35.8333 27.3333,36.1667 26.5,36.5C 31.9537,40.7335 37.6204,44.7335 43.5,48.5C 41.2887,51.7556 38.9554,54.9223 36.5,58C 32.7467,58.091 29.08,58.2577 25.5,58.5C 28.1667,60.1667 30.8333,61.8333 33.5,63.5C 35.4829,62.018 37.3163,60.3513 39,58.5C 38.4535,61.0933 36.9535,63.2599 34.5,65C 36.2907,67.414 37.9574,69.914 39.5,72.5C 39.9912,69.0267 40.3246,65.6934 40.5,62.5C 40.9555,65.2035 41.6221,67.8702 42.5,70.5C 42.2718,72.3969 41.2718,73.7303 39.5,74.5C 37.0922,70.1744 34.0922,66.3411 30.5,63C 28.2537,61.9605 26.087,60.7938 24,59.5C 23.7486,57.3968 24.7486,56.0635 27,55.5C 29.7296,56.8614 32.5629,57.3614 35.5,57C 37.5,54.3333 39.5,51.6667 41.5,49C 36.3378,45.2513 31.0044,41.7513 25.5,38.5C 24.1656,36.1817 24.8323,34.515 27.5,33.5C 34.9726,35.5766 42.4726,37.5766 50,39.5C 54.4549,36.0478 58.6216,32.2144 62.5,28C 69.9375,24.4094 72.7708,26.5761 71,34.5C 67.3333,38.1667 63.6667,41.8333 60,45.5C 60.1627,50.8356 60.6627,56.1689 61.5,61.5 Z"/></g>
<g><path style="opacity:1" fill="#73959b" d="M 52.5,58.5 C 51.3263,57.4863 50.6596,56.153 50.5,54.5C 51.4577,53.0384 52.6244,51.7051 54,50.5C 54.5074,51.9961 54.0074,53.1627 52.5,54C 53.4132,55.4139 53.4132,56.9139 52.5,58.5 Z"/></g>
<g><path style="opacity:1" fill="#585556" d="M 63.5,31.5 C 66.4947,29.9827 67.6614,30.9827 67,34.5C 66.5776,32.5743 65.4109,31.5743 63.5,31.5 Z"/></g>
<g><path style="opacity:1" fill="#f3c439" d="M 19.5,65.5 C 21.337,65.6395 21.6704,66.3061 20.5,67.5C 19.7025,67.0431 19.3691,66.3764 19.5,65.5 Z"/></g>
<g><path style="opacity:1" fill="#5d4841" d="M 50.5,54.5 C 50.6596,56.153 51.3263,57.4863 52.5,58.5C 54.943,62.7832 57.6097,66.9498 60.5,71C 61.1667,71.6667 61.8333,71.6667 62.5,71C 62.1459,69.3745 62.1459,67.5412 62.5,65.5C 65.5083,68.8029 65.0083,71.4696 61,73.5C 56.7641,68.039 52.7641,62.3723 49,56.5C 46.3713,58.8882 43.538,60.8882 40.5,62.5C 43.429,59.3637 46.7623,56.697 50.5,54.5 Z"/></g>
<g><path style="opacity:0.835" fill="#facf5a" d="M 77.5,74.5 C 77.5,73.8333 77.8333,73.5 78.5,73.5C 79.8333,73.5 81.1667,73.5 82.5,73.5C 82.5,74.8333 82.5,76.1667 82.5,77.5C 81.1667,77.5 79.8333,77.5 78.5,77.5C 78.7373,76.209 78.404,75.209 77.5,74.5 Z"/></g>
<g><path style="opacity:0.878" fill="#ed3d53" d="M 22.5,84.5 C 23.8333,84.5 25.1667,84.5 26.5,84.5C 26.5,85.8333 26.5,87.1667 26.5,88.5C 25.1667,88.5 23.8333,88.5 22.5,88.5C 22.5,87.1667 22.5,85.8333 22.5,84.5 Z"/></g>
</svg>
