<?xml version="1.0" encoding="UTF-8"?>
<!DOCTYPE svg PUBLIC "-//W3C//DTD SVG 1.1//EN" "http://www.w3.org/Graphics/SVG/1.1/DTD/svg11.dtd">
<svg xmlns="http://www.w3.org/2000/svg" version="1.1" width="100px" height="100px" style="shape-rendering:geometricPrecision; text-rendering:geometricPrecision; image-rendering:optimizeQuality; fill-rule:evenodd; clip-rule:evenodd" xmlns:xlink="http://www.w3.org/1999/xlink">
<g><path style="opacity:0.91" fill="#4c8a95" d="M 69.5,24.5 C 67.8333,24.5 66.1667,24.5 64.5,24.5C 67.8989,17.3691 71.5656,10.3691 75.5,3.5C 80.8023,2.33719 86.1357,2.17053 91.5,3C 92.4506,3.71752 92.6172,4.55085 92,5.5C 87.548,6.14094 83.048,6.80761 78.5,7.5C 75.2326,13.0353 72.2326,18.7019 69.5,24.5 Z"/></g>
<g><path style="opacity:0.867" fill="#cc604e" d="M 59.5,14.5 C 58.7377,12.7376 57.4044,11.7376 55.5,11.5C 54.5792,4.96855 57.2458,2.63522 63.5,4.5C 66.9826,9.74895 65.6493,13.0823 59.5,14.5 Z"/></g>
<g><path style="opacity:0.938" fill="#ce644f" d="M 24.5,11.5 C 28.1645,11.5018 31.1645,12.8352 33.5,15.5C 30.8333,18.5 28.1667,21.5 25.5,24.5C 24.5151,20.3656 24.1818,16.0323 24.5,11.5 Z"/></g>
<g><path style="opacity:0.924" fill="#4f8a93" d="M 55.5,11.5 C 57.4044,11.7376 58.7377,12.7376 59.5,14.5C 57.5,17.8333 55.5,21.1667 53.5,24.5C 51.8333,24.5 50.1667,24.5 48.5,24.5C 51.0877,20.326 53.421,15.9926 55.5,11.5 Z"/></g>
<g><path style="opacity:0.926" fill="#cc604d" d="M 15.5,15.5 C 17.9619,18.4639 20.6286,21.2972 23.5,24C 19.5138,24.4988 15.5138,24.6655 11.5,24.5C 11.5018,20.8355 12.8352,17.8355 15.5,15.5 Z"/></g>
<g><path style="opacity:0.938" fill="#f6c27a" d="M 33.5,15.5 C 36.1648,17.8355 37.4982,20.8355 37.5,24.5C 33.5,24.5 29.5,24.5 25.5,24.5C 28.1667,21.5 30.8333,18.5 33.5,15.5 Z"/></g>
<g><path style="opacity:0.937" fill="#f4bf79" d="M 24.5,11.5 C 24.1818,16.0323 24.5151,20.3656 25.5,24.5C 28.5703,27.5638 31.2369,30.8971 33.5,34.5C 30.7916,36.3531 27.7916,37.3531 24.5,37.5C 24.6655,33.4862 24.4988,29.4862 24,25.5C 21.2972,28.3714 18.4639,31.0381 15.5,33.5C 12.8352,31.1645 11.5018,28.1645 11.5,24.5C 15.5138,24.6655 19.5138,24.4988 23.5,24C 20.6286,21.2972 17.9619,18.4639 15.5,15.5C 17.8355,12.8352 20.8355,11.5018 24.5,11.5 Z"/></g>
<g><path style="opacity:0.984" fill="#6abecb" d="M 25.5,24.5 C 29.5,24.5 33.5,24.5 37.5,24.5C 41.1667,24.5 44.8333,24.5 48.5,24.5C 50.1667,24.5 51.8333,24.5 53.5,24.5C 57.1667,24.5 60.8333,24.5 64.5,24.5C 66.1667,24.5 67.8333,24.5 69.5,24.5C 71.1992,24.3398 72.8659,24.5065 74.5,25C 71.2975,28.3709 67.9641,31.5375 64.5,34.5C 63.1266,34.6567 61.7932,34.49 60.5,34C 59.2226,32.2142 57.556,31.0476 55.5,30.5C 53.1921,31.9013 50.6921,32.9013 48,33.5C 45.0696,31.7619 41.9029,31.2619 38.5,32C 37.2899,33.0391 36.2899,34.2058 35.5,35.5C 34.8333,35.1667 34.1667,34.8333 33.5,34.5C 31.2369,30.8971 28.5703,27.5638 25.5,24.5 Z"/></g>
<g><path style="opacity:0.925" fill="#cc5f4e" d="M 24.5,37.5 C 20.8355,37.4982 17.8355,36.1648 15.5,33.5C 18.4639,31.0381 21.2972,28.3714 24,25.5C 24.4988,29.4862 24.6655,33.4862 24.5,37.5 Z"/></g>
<g><path style="opacity:1" fill="#f0c27e" d="M 64.5,34.5 C 60.1667,39.1667 55.8333,43.8333 51.5,48.5C 50.1667,48.5 48.8333,48.5 47.5,48.5C 43.5,44.1667 39.5,39.8333 35.5,35.5C 36.2899,34.2058 37.2899,33.0391 38.5,32C 41.9029,31.2619 45.0696,31.7619 48,33.5C 50.6921,32.9013 53.1921,31.9013 55.5,30.5C 57.556,31.0476 59.2226,32.2142 60.5,34C 61.7932,34.49 63.1266,34.6567 64.5,34.5 Z"/></g>
<g><path style="opacity:0.88" fill="#f7c47a" d="M 69.5,41.5 C 78.1215,40.9325 80.1215,44.0992 75.5,51C 67.9994,51.3304 65.9994,48.1637 69.5,41.5 Z"/></g>
<g><path style="opacity:0.87" fill="#f7c37a" d="M 29.5,49.5 C 37.2193,48.8701 39.2193,51.8701 35.5,58.5C 27.4106,59.777 25.4106,56.777 29.5,49.5 Z"/></g>
<g><path style="opacity:1" fill="#5ba3af" d="M 47.5,48.5 C 48.8333,48.5 50.1667,48.5 51.5,48.5C 51.5,60.5 51.5,72.5 51.5,84.5C 50.0413,84.4326 48.7079,84.7659 47.5,85.5C 47.5,73.1667 47.5,60.8333 47.5,48.5 Z"/></g>
<g><path style="opacity:0.779" fill="#f7c27a" d="M 56.5,53.5 C 62.0159,53.4734 63.3492,55.64 60.5,60C 55.1766,60.1802 53.8433,58.0136 56.5,53.5 Z"/></g>
<g><path style="opacity:0.823" fill="#f8c576" d="M 36.5,64.5 C 41.2137,64.2008 42.8804,66.2008 41.5,70.5C 39.604,71.4656 37.604,71.7989 35.5,71.5C 35.67,70.1779 35.3366,69.0113 34.5,68C 35.305,66.8873 35.9717,65.7206 36.5,64.5 Z"/></g>
<g><path style="opacity:0.802" fill="#f8c179" d="M 59.5,69.5 C 65.1581,68.6794 66.8248,70.846 64.5,76C 58.741,77.1387 57.0744,74.972 59.5,69.5 Z"/></g>
<g><path style="opacity:0.982" fill="#4c8b96" d="M 51.5,84.5 C 55.1208,87.7829 58.7875,91.1162 62.5,94.5C 53.8333,95.8333 45.1667,95.8333 36.5,94.5C 39.8953,91.0985 43.562,88.0985 47.5,85.5C 48.7079,84.7659 50.0413,84.4326 51.5,84.5 Z"/></g>
</svg>
