<?xml version="1.0" encoding="UTF-8"?>
<!DOCTYPE svg PUBLIC "-//W3C//DTD SVG 1.1//EN" "http://www.w3.org/Graphics/SVG/1.1/DTD/svg11.dtd">
<svg xmlns="http://www.w3.org/2000/svg" version="1.1" width="100px" height="100px" style="shape-rendering:geometricPrecision; text-rendering:geometricPrecision; image-rendering:optimizeQuality; fill-rule:evenodd; clip-rule:evenodd" xmlns:xlink="http://www.w3.org/1999/xlink">
<g><path style="opacity:0.961" fill="#f0bb19" d="M 79.5,10.5 C 86.1584,9.34448 88.1584,11.8445 85.5,18C 78.7496,19.4689 76.7496,16.9689 79.5,10.5 Z"/></g>
<g><path style="opacity:0.765" fill="#f0bb17" d="M 75.5,11.5 C 77.337,11.6395 77.6704,12.3061 76.5,13.5C 75.7025,13.0431 75.3691,12.3764 75.5,11.5 Z"/></g>
<g><path style="opacity:0.968" fill="#e4e3f8" d="M 78.5,73.5 C 78.5,73.8333 78.5,74.1667 78.5,74.5C 67.9094,84.8611 55.2428,88.6944 40.5,86C 29.4791,83.0176 21.4791,76.5176 16.5,66.5C 19.9157,61.513 18.5824,58.8463 12.5,58.5C 10.8095,26.0234 26.1429,10.8568 58.5,13C 80.274,20.3598 89.4407,35.5265 86,58.5C 84.541,64.0848 82.041,69.0848 78.5,73.5 Z"/></g>
<g><path style="opacity:0.799" fill="#8788b8" d="M 84.5,21.5 C 85.8333,21.5 87.1667,21.5 88.5,21.5C 88.5,22.8333 88.5,24.1667 88.5,25.5C 87.1667,25.5 85.8333,25.5 84.5,25.5C 84.5,24.1667 84.5,22.8333 84.5,21.5 Z"/></g>
<g><path style="opacity:1" fill="#4c2f2d" d="M 26.5,26.5 C 41.837,26.3334 57.1703,26.5001 72.5,27C 73,27.5 73.5,28 74,28.5C 74.1667,31.3333 74.3333,34.1667 74.5,37C 72.9338,47.9988 72.1005,59.1655 72,70.5C 71.5,71 71,71.5 70.5,72C 56.5,72.6667 42.5,72.6667 28.5,72C 28,71.5 27.5,71 27,70.5C 26.8995,59.1655 26.0662,47.9988 24.5,37C 24.2473,33.2026 24.914,29.7026 26.5,26.5 Z"/></g>
<g><path style="opacity:1" fill="#f9f7ed" d="M 53.5,58.5 C 52.9862,56.5613 51.6528,55.5613 49.5,55.5C 47.3472,55.5613 46.0138,56.5613 45.5,58.5C 44.5489,59.9187 44.2155,61.5853 44.5,63.5C 43.5,63.5 42.5,63.5 41.5,63.5C 38.2758,63.3155 34.9425,63.6488 31.5,64.5C 30.4324,63.5655 29.099,63.2322 27.5,63.5C 27.5,58.1667 27.5,52.8333 27.5,47.5C 32.5111,47.6659 37.5111,47.4993 42.5,47C 44.9554,43.9223 47.2887,40.7556 49.5,37.5C 51.7113,40.7556 54.0446,43.9223 56.5,47C 61.4889,47.4993 66.4889,47.6659 71.5,47.5C 71.5,52.8333 71.5,58.1667 71.5,63.5C 65.8333,63.5 60.1667,63.5 54.5,63.5C 54.7845,61.5853 54.4511,59.9187 53.5,58.5 Z"/></g>
<g><path style="opacity:1" fill="#a3404c" d="M 72.5,29.5 C 73.8333,34.5 73.8333,39.5 72.5,44.5C 69.6946,43.6805 66.6946,43.1805 63.5,43C 66.4816,42.502 69.4816,42.3354 72.5,42.5C 72.5,38.1667 72.5,33.8333 72.5,29.5 Z"/></g>
<g><path style="opacity:1" fill="#a4414c" d="M 26.5,29.5 C 25.9347,34.3222 26.6013,38.8222 28.5,43C 27.5842,43.2784 26.9175,43.7784 26.5,44.5C 25.1667,39.5 25.1667,34.5 26.5,29.5 Z"/></g>
<g><path style="opacity:1" fill="#e24f64" d="M 72.5,29.5 C 72.5,33.8333 72.5,38.1667 72.5,42.5C 69.4816,42.3354 66.4816,42.502 63.5,43C 66.6946,43.1805 69.6946,43.6805 72.5,44.5C 72.3893,45.1174 72.056,45.6174 71.5,46C 66.8333,46.6667 62.1667,46.6667 57.5,46C 56.944,45.6174 56.6107,45.1174 56.5,44.5C 58.2922,43.6909 60.2922,43.1909 62.5,43C 60.7444,42.7978 59.0777,42.2978 57.5,41.5C 55.0659,37.6183 52.3993,33.9516 49.5,30.5C 46.6318,34.3851 43.6318,38.2184 40.5,42C 37.1667,42.3333 33.8333,42.6667 30.5,43C 34.1667,43.6667 37.8333,43.6667 41.5,43C 42.2555,41.6197 42.9222,41.453 43.5,42.5C 43.4894,44.0174 42.8228,45.1841 41.5,46C 36.8333,46.6667 32.1667,46.6667 27.5,46C 26.944,45.6174 26.6107,45.1174 26.5,44.5C 26.9175,43.7784 27.5842,43.2784 28.5,43C 26.6013,38.8222 25.9347,34.3222 26.5,29.5C 26.6107,28.8826 26.944,28.3826 27.5,28C 42.1667,27.3333 56.8333,27.3333 71.5,28C 72.056,28.3826 72.3893,28.8826 72.5,29.5 Z"/></g>
<g><path style="opacity:1" fill="#c44858" d="M 56.5,44.5 C 54.417,41.3492 52.0837,38.3492 49.5,35.5C 47.4773,37.8528 45.4773,40.1862 43.5,42.5C 42.9222,41.453 42.2555,41.6197 41.5,43C 37.8333,43.6667 34.1667,43.6667 30.5,43C 33.8333,42.6667 37.1667,42.3333 40.5,42C 43.6318,38.2184 46.6318,34.3851 49.5,30.5C 52.3993,33.9516 55.0659,37.6183 57.5,41.5C 59.0777,42.2978 60.7444,42.7978 62.5,43C 60.2922,43.1909 58.2922,43.6909 56.5,44.5 Z"/></g>
<g><path style="opacity:1" fill="#462b28" d="M 32.5,50.5 C 35.1667,50.5 37.8333,50.5 40.5,50.5C 40.5,53.5 40.5,56.5 40.5,59.5C 37.8333,59.5 35.1667,59.5 32.5,59.5C 32.5,56.5 32.5,53.5 32.5,50.5 Z"/></g>
<g><path style="opacity:1" fill="#462b28" d="M 58.5,50.5 C 61.1667,50.5 63.8333,50.5 66.5,50.5C 66.5,53.5 66.5,56.5 66.5,59.5C 63.8333,59.5 61.1667,59.5 58.5,59.5C 58.5,56.5 58.5,53.5 58.5,50.5 Z"/></g>
<g><path style="opacity:1" fill="#86c7d1" d="M 33.5,51.5 C 35.5,51.5 37.5,51.5 39.5,51.5C 39.5,53.8333 39.5,56.1667 39.5,58.5C 37.5,58.5 35.5,58.5 33.5,58.5C 33.5,56.1667 33.5,53.8333 33.5,51.5 Z"/></g>
<g><path style="opacity:1" fill="#86c7d1" d="M 59.5,51.5 C 61.5,51.5 63.5,51.5 65.5,51.5C 65.5,53.8333 65.5,56.1667 65.5,58.5C 63.5,58.5 61.5,58.5 59.5,58.5C 59.5,56.1667 59.5,53.8333 59.5,51.5 Z"/></g>
<g><path style="opacity:1" fill="#ba763f" d="M 53.5,58.5 C 53.5,62.8333 53.5,67.1667 53.5,71.5C 50.8333,71.5 48.1667,71.5 45.5,71.5C 45.5,67.1667 45.5,62.8333 45.5,58.5C 46.0138,56.5613 47.3472,55.5613 49.5,55.5C 51.6528,55.5613 52.9862,56.5613 53.5,58.5 Z"/></g>
<g><path style="opacity:0.961" fill="#facd5c" d="M 12.5,58.5 C 18.5824,58.8463 19.9157,61.513 16.5,66.5C 10.9334,67.2468 9.10005,64.9134 11,59.5C 11.3826,58.944 11.8826,58.6107 12.5,58.5 Z"/></g>
<g><path style="opacity:1" fill="#b7b1bf" d="M 41.5,63.5 C 42.209,64.404 43.209,64.7373 44.5,64.5C 44.5,66.8333 44.5,69.1667 44.5,71.5C 39.4889,71.6659 34.4889,71.4993 29.5,71C 27.771,69.2111 27.1043,67.0444 27.5,64.5C 28.8333,64.5 30.1667,64.5 31.5,64.5C 34.9425,63.6488 38.2758,63.3155 41.5,63.5 Z"/></g>
<g><path style="opacity:1" fill="#bdb8c7" d="M 54.5,64.5 C 60.1667,64.5 65.8333,64.5 71.5,64.5C 71.8957,67.0444 71.229,69.2111 69.5,71C 64.5111,71.4993 59.5111,71.6659 54.5,71.5C 54.5,69.1667 54.5,66.8333 54.5,64.5 Z"/></g>
<g><path style="opacity:0.835" fill="#facc58" d="M 78.5,73.5 C 79.8333,73.5 81.1667,73.5 82.5,73.5C 82.5,74.8333 82.5,76.1667 82.5,77.5C 81.1667,77.5 79.8333,77.5 78.5,77.5C 78.5,76.5 78.5,75.5 78.5,74.5C 78.5,74.1667 78.5,73.8333 78.5,73.5 Z"/></g>
<g><path style="opacity:0.799" fill="#8788b8" d="M 22.5,84.5 C 23.8333,84.5 25.1667,84.5 26.5,84.5C 26.5,85.8333 26.5,87.1667 26.5,88.5C 25.1667,88.5 23.8333,88.5 22.5,88.5C 22.5,87.1667 22.5,85.8333 22.5,84.5 Z"/></g>
</svg>
