<?xml version="1.0" encoding="UTF-8"?>
<!DOCTYPE svg PUBLIC "-//W3C//DTD SVG 1.1//EN" "http://www.w3.org/Graphics/SVG/1.1/DTD/svg11.dtd">
<svg xmlns="http://www.w3.org/2000/svg" version="1.1" width="100px" height="100px" style="shape-rendering:geometricPrecision; text-rendering:geometricPrecision; image-rendering:optimizeQuality; fill-rule:evenodd; clip-rule:evenodd" xmlns:xlink="http://www.w3.org/1999/xlink">
<g><path style="opacity:0.986" fill="#f8dad1" d="M 79.5,74.5 C 76.5,74.1667 75.1667,75.5 75.5,78.5C 59.2928,89.7333 42.6262,90.3999 25.5,80.5C 24.1667,78.5 22.5,76.8333 20.5,75.5C 20.1667,74.5 19.5,73.8333 18.5,73.5C 9.00447,57.4113 9.17114,41.4113 19,25.5C 34.015,10.1311 51.1816,7.29772 70.5,17C 84.6067,27.3049 90.1067,41.1383 87,58.5C 85.2893,64.2522 82.7893,69.5855 79.5,74.5 Z"/></g>
<g><path style="opacity:0.961" fill="#f0bb19" d="M 80.5,11.5 C 87.1584,10.3445 89.1584,12.8445 86.5,19C 79.7496,20.4689 77.7496,17.9689 80.5,11.5 Z"/></g>
<g><path style="opacity:0.765" fill="#f0bb17" d="M 76.5,12.5 C 78.337,12.6395 78.6704,13.3061 77.5,14.5C 76.7025,14.0431 76.3691,13.3764 76.5,12.5 Z"/></g>
<g><path style="opacity:1" fill="#e7d787" d="M 51.5,18.5 C 52.038,20.1172 52.3713,21.7839 52.5,23.5C 51.8333,23.5 51.5,23.8333 51.5,24.5C 49.7839,24.3713 48.1172,24.038 46.5,23.5C 46.5,20.1667 48.1667,18.5 51.5,18.5 Z"/></g>
<g><path style="opacity:1" fill="#7699c4" d="M 46.5,23.5 C 47.8786,25.5969 49.5453,25.9302 51.5,24.5C 51.5,23.8333 51.8333,23.5 52.5,23.5C 58.3349,20.6046 63.1682,21.9379 67,27.5C 67.4986,31.1516 67.6653,34.8183 67.5,38.5C 62.9677,38.1818 58.6344,38.5151 54.5,39.5C 53.1498,41.6829 51.3164,43.3496 49,44.5C 47.172,42.8635 45.3386,41.1968 43.5,39.5C 39.7016,38.5166 35.7016,38.1832 31.5,38.5C 29.1545,28.8587 32.8212,23.1921 42.5,21.5C 44.1143,21.8029 45.4477,22.4695 46.5,23.5 Z"/></g>
<g><path style="opacity:0.878" fill="#ed3d53" d="M 11.5,23.5 C 12.8333,23.5 14.1667,23.5 15.5,23.5C 15.5,24.8333 15.5,26.1667 15.5,27.5C 14.1667,27.5 12.8333,27.5 11.5,27.5C 11.5,26.1667 11.5,24.8333 11.5,23.5 Z"/></g>
<g><path style="opacity:1" fill="#5f4b46" d="M 46.5,23.5 C 48.1172,24.038 49.7839,24.3713 51.5,24.5C 49.5453,25.9302 47.8786,25.5969 46.5,23.5 Z"/></g>
<g><path style="opacity:1" fill="#5a4139" d="M 51.5,18.5 C 48.1667,18.5 46.5,20.1667 46.5,23.5C 45.4477,22.4695 44.1143,21.8029 42.5,21.5C 32.8212,23.1921 29.1545,28.8587 31.5,38.5C 35.7016,38.1832 39.7016,38.5166 43.5,39.5C 39.4454,39.1758 35.4454,39.5091 31.5,40.5C 35.6475,41.167 39.6475,41.8337 43.5,42.5C 39.5,42.5 35.5,42.5 31.5,42.5C 31.5,45.5 31.5,48.5 31.5,51.5C 34.8333,51.5 38.1667,51.5 41.5,51.5C 38.3752,52.4794 35.0419,52.8128 31.5,52.5C 31.5,53.5 31.5,54.5 31.5,55.5C 30.342,46.0089 30.1754,36.3422 31,26.5C 37.0012,20.9016 43.8346,18.2349 51.5,18.5 Z"/></g>
<g><path style="opacity:1" fill="#4d3636" d="M 34.5,26.5 C 38.8461,26.3343 43.1794,26.501 47.5,27C 48.6105,29.7372 48.7772,32.5706 48,35.5C 43.5868,36.6324 39.0868,36.7991 34.5,36C 33.208,32.8347 33.208,29.668 34.5,26.5 Z"/></g>
<g><path style="opacity:1" fill="#badbda" d="M 35.5,27.5 C 39.1817,27.3347 42.8484,27.5014 46.5,28C 47.5914,30.0639 47.7581,32.2305 47,34.5C 43.2564,35.626 39.423,35.7927 35.5,35C 34.2215,32.5024 34.2215,30.0024 35.5,27.5 Z"/></g>
<g><path style="opacity:1" fill="#4d3636" d="M 51.5,26.5 C 55.8461,26.3343 60.1794,26.501 64.5,27C 65.6105,29.7372 65.7772,32.5706 65,35.5C 60.5868,36.6324 56.0868,36.7991 51.5,36C 50.208,32.8347 50.208,29.668 51.5,26.5 Z"/></g>
<g><path style="opacity:1" fill="#b9dad9" d="M 52.5,27.5 C 56.1817,27.3347 59.8484,27.5014 63.5,28C 64.5914,30.0639 64.7581,32.2305 64,34.5C 60.2564,35.626 56.423,35.7927 52.5,35C 51.2215,32.5024 51.2215,30.0024 52.5,27.5 Z"/></g>
<g><path style="opacity:1" fill="#5a4239" d="M 51.5,18.5 C 55.5505,19.3485 59.5505,20.5152 63.5,22C 65.6667,22.8333 67.1667,24.3333 68,26.5C 68.8246,36.3422 68.658,46.0089 67.5,55.5C 67.5,54.5 67.5,53.5 67.5,52.5C 63.9581,52.8128 60.6248,52.4794 57.5,51.5C 60.8333,51.5 64.1667,51.5 67.5,51.5C 67.5,48.5 67.5,45.5 67.5,42.5C 63.5,42.5 59.5,42.5 55.5,42.5C 59.3525,41.8337 63.3525,41.167 67.5,40.5C 63.2172,39.5078 58.8839,39.1744 54.5,39.5C 58.6344,38.5151 62.9677,38.1818 67.5,38.5C 67.6653,34.8183 67.4986,31.1516 67,27.5C 63.1682,21.9379 58.3349,20.6046 52.5,23.5C 52.3713,21.7839 52.038,20.1172 51.5,18.5 Z"/></g>
<g><path style="opacity:0.765" fill="#f0bb17" d="M 84.5,29.5 C 86.337,29.6395 86.6704,30.3061 85.5,31.5C 84.7025,31.0431 84.3691,30.3764 84.5,29.5 Z"/></g>
<g><path style="opacity:1" fill="#748fb5" d="M 43.5,42.5 C 45.1455,44.8122 47.1455,46.8122 49.5,48.5C 51.8818,46.785 53.8818,44.785 55.5,42.5C 59.5,42.5 63.5,42.5 67.5,42.5C 67.5,45.5 67.5,48.5 67.5,51.5C 64.1667,51.5 60.8333,51.5 57.5,51.5C 52.1667,51.5 46.8333,51.5 41.5,51.5C 38.1667,51.5 34.8333,51.5 31.5,51.5C 31.5,48.5 31.5,45.5 31.5,42.5C 35.5,42.5 39.5,42.5 43.5,42.5 Z"/></g>
<g><path style="opacity:1" fill="#e1af20" d="M 43.5,39.5 C 45.3386,41.1968 47.172,42.8635 49,44.5C 51.3164,43.3496 53.1498,41.6829 54.5,39.5C 58.8839,39.1744 63.2172,39.5078 67.5,40.5C 63.3525,41.167 59.3525,41.8337 55.5,42.5C 53.8818,44.785 51.8818,46.785 49.5,48.5C 47.1455,46.8122 45.1455,44.8122 43.5,42.5C 39.6475,41.8337 35.6475,41.167 31.5,40.5C 35.4454,39.5091 39.4454,39.1758 43.5,39.5 Z"/></g>
<g><path style="opacity:1" fill="#e0b552" d="M 34.5,45.5 C 35.5,45.5 36.5,45.5 37.5,45.5C 37.5,46.5 37.5,47.5 37.5,48.5C 36.5,48.5 35.5,48.5 34.5,48.5C 34.5,47.5 34.5,46.5 34.5,45.5 Z"/></g>
<g><path style="opacity:1" fill="#e0b552" d="M 61.5,45.5 C 62.5,45.5 63.5,45.5 64.5,45.5C 64.5,46.5 64.5,47.5 64.5,48.5C 63.5,48.5 62.5,48.5 61.5,48.5C 61.5,47.5 61.5,46.5 61.5,45.5 Z"/></g>
<g><path style="opacity:1" fill="#6f5a62" d="M 41.5,51.5 C 46.8333,51.5 52.1667,51.5 57.5,51.5C 60.6248,52.4794 63.9581,52.8128 67.5,52.5C 67.5,53.5 67.5,54.5 67.5,55.5C 67.7678,57.099 67.4345,58.4324 66.5,59.5C 66.5,57.5 66.5,55.5 66.5,53.5C 62.7254,53.0719 59.2254,53.7386 56,55.5C 51.6667,52.8333 47.3333,52.8333 43,55.5C 39.7746,53.7386 36.2746,53.0719 32.5,53.5C 32.5,55.5 32.5,57.5 32.5,59.5C 31.5655,58.4324 31.2322,57.099 31.5,55.5C 31.5,54.5 31.5,53.5 31.5,52.5C 35.0419,52.8128 38.3752,52.4794 41.5,51.5 Z"/></g>
<g><path style="opacity:1" fill="#7f7aa2" d="M 66.5,59.5 C 64.9261,61.1016 64.2594,63.1016 64.5,65.5C 53.9087,66.1047 43.5754,65.4381 33.5,63.5C 32.5655,62.4324 32.2322,61.099 32.5,59.5C 32.5,57.5 32.5,55.5 32.5,53.5C 36.2746,53.0719 39.7746,53.7386 43,55.5C 47.3333,52.8333 51.6667,52.8333 56,55.5C 59.2254,53.7386 62.7254,53.0719 66.5,53.5C 66.5,55.5 66.5,57.5 66.5,59.5 Z"/></g>
<g><path style="opacity:1" fill="#5a3d39" d="M 66.5,59.5 C 66.3259,61.861 65.9926,64.1944 65.5,66.5C 60.9593,66.3309 60.626,66.9975 64.5,68.5C 66.0224,70.1563 65.689,71.323 63.5,72C 68.0833,73.637 68.4167,75.8036 64.5,78.5C 63.8182,77.7573 63.1515,77.0906 62.5,76.5C 62.5674,75.0413 62.2341,73.7079 61.5,72.5C 61.1231,70.742 60.4565,69.0754 59.5,67.5C 52.8333,66.1667 46.1667,66.1667 39.5,67.5C 38.5435,69.0754 37.8769,70.742 37.5,72.5C 36.7659,73.7079 36.4326,75.0413 36.5,76.5C 35.8485,77.0906 35.1818,77.7573 34.5,78.5C 30.5833,75.8036 30.9167,73.637 35.5,72C 33.1506,69.6432 33.8172,67.9765 37.5,67C 36.2068,66.51 34.8734,66.3433 33.5,66.5C 33.5,65.5 33.5,64.5 33.5,63.5C 43.5754,65.4381 53.9087,66.1047 64.5,65.5C 64.2594,63.1016 64.9261,61.1016 66.5,59.5 Z"/></g>
<g><path style="opacity:1" fill="#b39584" d="M 61.5,72.5 C 53.5,72.5 45.5,72.5 37.5,72.5C 37.8769,70.742 38.5435,69.0754 39.5,67.5C 46.1667,66.1667 52.8333,66.1667 59.5,67.5C 60.4565,69.0754 61.1231,70.742 61.5,72.5 Z"/></g>
<g><path style="opacity:0.936" fill="#facc58" d="M 18.5,73.5 C 19.5,73.8333 20.1667,74.5 20.5,75.5C 21.2468,81.0666 18.9134,82.9 13.5,81C 11.02,75.562 12.6867,73.062 18.5,73.5 Z"/></g>
<g><path style="opacity:1" fill="#997a67" d="M 37.5,72.5 C 45.5,72.5 53.5,72.5 61.5,72.5C 62.2341,73.7079 62.5674,75.0413 62.5,76.5C 53.7326,76.2899 45.0659,76.2899 36.5,76.5C 36.4326,75.0413 36.7659,73.7079 37.5,72.5 Z"/></g>
<g><path style="opacity:0.878" fill="#facc5a" d="M 79.5,74.5 C 79.5,75.8333 79.5,77.1667 79.5,78.5C 78.1667,78.5 76.8333,78.5 75.5,78.5C 75.1667,75.5 76.5,74.1667 79.5,74.5 Z"/></g>
<g><path style="opacity:0.878" fill="#ed3d53" d="M 25.5,80.5 C 25.5,81.8333 25.5,83.1667 25.5,84.5C 24.1667,84.5 22.8333,84.5 21.5,84.5C 21.5,83.1667 21.5,81.8333 21.5,80.5C 22.8333,80.5 24.1667,80.5 25.5,80.5 Z"/></g>
</svg>
