<?xml version="1.0" encoding="UTF-8"?>
<!DOCTYPE svg PUBLIC "-//W3C//DTD SVG 1.1//EN" "http://www.w3.org/Graphics/SVG/1.1/DTD/svg11.dtd">
<svg xmlns="http://www.w3.org/2000/svg" version="1.1" width="100px" height="100px" style="shape-rendering:geometricPrecision; text-rendering:geometricPrecision; image-rendering:optimizeQuality; fill-rule:evenodd; clip-rule:evenodd" xmlns:xlink="http://www.w3.org/1999/xlink">
<g><path style="opacity:0.961" fill="#f0bb19" d="M 80.5,10.5 C 87.1584,9.34448 89.1584,11.8445 86.5,18C 79.7496,19.4689 77.7496,16.9689 80.5,10.5 Z"/></g>
<g><path style="opacity:0.765" fill="#f0bb17" d="M 76.5,11.5 C 78.337,11.6395 78.6704,12.3061 77.5,13.5C 76.7025,13.0431 76.3691,12.3764 76.5,11.5 Z"/></g>
<g><path style="opacity:0.973" fill="#fadea0" d="M 79.5,73.5 C 78.8333,73.5 78.5,73.8333 78.5,74.5C 68.4123,85.0265 56.079,88.8598 41.5,86C 30.4791,83.0176 22.4791,76.5176 17.5,66.5C 20.9157,61.513 19.5824,58.8463 13.5,58.5C 11.8095,26.0234 27.1429,10.8568 59.5,13C 81.274,20.3598 90.4407,35.5265 87,58.5C 85.541,64.0848 83.041,69.0848 79.5,73.5 Z"/></g>
<g><path style="opacity:0.878" fill="#ed3d53" d="M 85.5,21.5 C 86.8333,21.5 88.1667,21.5 89.5,21.5C 89.5,22.8333 89.5,24.1667 89.5,25.5C 88.1667,25.5 86.8333,25.5 85.5,25.5C 85.5,24.1667 85.5,22.8333 85.5,21.5 Z"/></g>
<g><path style="opacity:1" fill="#4d79a8" d="M 65.5,25.5 C 66.0101,28.9828 66.6768,32.3162 67.5,35.5C 67.5,35.8333 67.5,36.1667 67.5,36.5C 67.8195,41.3633 67.4861,46.03 66.5,50.5C 66.5523,43.7943 66.0523,37.1276 65,30.5C 64.0701,28.4476 62.5701,26.9476 60.5,26C 62.1341,25.5065 63.8008,25.3398 65.5,25.5 Z"/></g>
<g><path style="opacity:0.878" fill="#ed3d53" d="M 11.5,26.5 C 12.8333,26.5 14.1667,26.5 15.5,26.5C 15.5,27.8333 15.5,29.1667 15.5,30.5C 14.1667,30.5 12.8333,30.5 11.5,30.5C 11.5,29.1667 11.5,27.8333 11.5,26.5 Z"/></g>
<g><path style="opacity:1" fill="#53464d" d="M 65.5,25.5 C 63.8008,25.3398 62.1341,25.5065 60.5,26C 62.5701,26.9476 64.0701,28.4476 65,30.5C 66.0523,37.1276 66.5523,43.7943 66.5,50.5C 66.9821,56.6603 67.6488,62.6603 68.5,68.5C 67.4154,70.5869 65.7488,71.9202 63.5,72.5C 65.9907,69.9208 66.9907,66.7541 66.5,63C 66.0169,51.7156 64.8502,40.549 63,29.5C 61.4259,28.1524 59.5925,27.4858 57.5,27.5C 49.8201,28.1671 42.1534,28.8337 34.5,29.5C 33.1667,29.5 31.8333,29.5 30.5,29.5C 30.5,31.8333 30.5,34.1667 30.5,36.5C 29.8442,35.3784 29.5108,34.0451 29.5,32.5C 29.6493,30.6803 30.3159,29.1803 31.5,28C 41.6921,27.0527 51.8587,25.8861 62,24.5C 63.3847,24.5143 64.5514,24.8476 65.5,25.5 Z"/></g>
<g><path style="opacity:1" fill="#779cc9" d="M 63.5,72.5 C 55.4827,72.5012 47.4827,72.8345 39.5,73.5C 38.5,73.5 37.5,73.5 36.5,73.5C 36.0887,60.153 35.422,46.8197 34.5,33.5C 34.5,32.1667 34.5,30.8333 34.5,29.5C 42.1534,28.8337 49.8201,28.1671 57.5,27.5C 59.5925,27.4858 61.4259,28.1524 63,29.5C 64.8502,40.549 66.0169,51.7156 66.5,63C 66.9907,66.7541 65.9907,69.9208 63.5,72.5 Z"/></g>
<g><path style="opacity:1" fill="#51739d" d="M 34.5,29.5 C 34.5,30.8333 34.5,32.1667 34.5,33.5C 33.8367,35.6413 33.5034,37.9746 33.5,40.5C 34.143,49.6684 34.8096,58.8351 35.5,68C 35.1667,70.1667 34.8333,72.3333 34.5,74.5C 33.833,70.3525 33.1663,66.3525 32.5,62.5C 31.3553,54.0192 30.6886,45.3525 30.5,36.5C 30.5,34.1667 30.5,31.8333 30.5,29.5C 31.8333,29.5 33.1667,29.5 34.5,29.5 Z"/></g>
<g><path style="opacity:1" fill="#b89437" d="M 57.5,31.5 C 58.8333,31.5 59.5,32.1667 59.5,33.5C 59.5,32.1667 58.8333,31.5 57.5,31.5 Z"/></g>
<g><path style="opacity:1" fill="#cda32e" d="M 46.5,32.5 C 46.5,33.8333 45.8333,34.5 44.5,34.5C 44.5,33.1667 45.1667,32.5 46.5,32.5 Z"/></g>
<g><path style="opacity:1" fill="#ab8b3d" d="M 50.5,32.5 C 51.675,32.281 52.675,32.6143 53.5,33.5C 51.9483,34.7979 50.9483,34.4646 50.5,32.5 Z"/></g>
<g><path style="opacity:1" fill="#807358" d="M 57.5,31.5 C 57.5,32.8333 58.1667,33.5 59.5,33.5C 58.791,34.404 57.791,34.7373 56.5,34.5C 56.2627,33.209 56.596,32.209 57.5,31.5 Z"/></g>
<g><path style="opacity:1" fill="#b59032" d="M 38.5,33.5 C 40.337,33.6395 40.6704,34.3061 39.5,35.5C 38.7025,35.0431 38.3691,34.3764 38.5,33.5 Z"/></g>
<g><path style="opacity:1" fill="#7c7566" d="M 46.5,32.5 C 47.404,33.209 47.7373,34.209 47.5,35.5C 46.209,35.7373 45.209,35.404 44.5,34.5C 45.8333,34.5 46.5,33.8333 46.5,32.5 Z"/></g>
<g><path style="opacity:1" fill="#5b5760" d="M 65.5,25.5 C 66.1174,25.6107 66.6174,25.944 67,26.5C 67.498,29.4816 67.6646,32.4816 67.5,35.5C 66.6768,32.3162 66.0101,28.9828 65.5,25.5 Z"/></g>
<g><path style="opacity:1" fill="#4e749e" d="M 57.5,54.5 C 55.5891,54.4257 54.4224,53.4257 54,51.5C 52.9887,52.3366 51.8221,52.67 50.5,52.5C 50.5,49.8333 50.5,47.1667 50.5,44.5C 49.448,44.3505 48.448,44.5172 47.5,45C 48.9733,45.7096 49.6399,46.8762 49.5,48.5C 47.549,48.7733 46.049,48.1066 45,46.5C 44.2904,47.9733 43.1238,48.6399 41.5,48.5C 41.5,47.1667 41.5,45.8333 41.5,44.5C 45.1279,38.1775 50.1279,37.0108 56.5,41C 60.0274,45.3548 60.3608,49.8548 57.5,54.5 Z"/></g>
<g><path style="opacity:1" fill="#565e75" d="M 34.5,33.5 C 35.422,46.8197 36.0887,60.153 36.5,73.5C 37.5,73.5 38.5,73.5 39.5,73.5C 39.5,73.8333 39.5,74.1667 39.5,74.5C 37.1944,74.9926 34.861,75.3259 32.5,75.5C 32.5,71.1667 32.5,66.8333 32.5,62.5C 33.1663,66.3525 33.833,70.3525 34.5,74.5C 34.8333,72.3333 35.1667,70.1667 35.5,68C 34.8096,58.8351 34.143,49.6684 33.5,40.5C 33.5034,37.9746 33.8367,35.6413 34.5,33.5 Z"/></g>
<g><path style="opacity:1" fill="#4d7bab" d="M 42.5,54.5 C 41.6618,54.1583 41.3284,53.4916 41.5,52.5C 41.5,51.5 41.5,50.5 41.5,49.5C 44.1667,49.5 46.8333,49.5 49.5,49.5C 49.3398,51.1992 49.5065,52.8659 50,54.5C 50.414,54.0426 50.914,53.7093 51.5,53.5C 52.5827,54.365 52.7494,55.365 52,56.5C 50.6015,57.0509 49.2682,57.3842 48,57.5C 47.2496,56.8742 46.4162,56.3742 45.5,56C 46.6721,55.5814 47.6721,54.9147 48.5,54C 47.1509,53.2276 46.3176,52.0609 46,50.5C 45.51,51.7932 45.3433,53.1266 45.5,54.5C 44.5,54.5 43.5,54.5 42.5,54.5 Z"/></g>
<g><path style="opacity:1" fill="#fefbf5" d="M 18.5,51.5 C 22.1612,51.3501 23.1612,52.8501 21.5,56C 17.7071,56.4866 16.7071,54.9866 18.5,51.5 Z"/></g>
<g><path style="opacity:1" fill="#595e71" d="M 67.5,36.5 C 69.3137,47.1389 69.6471,57.8056 68.5,68.5C 67.6488,62.6603 66.9821,56.6603 66.5,50.5C 67.4861,46.03 67.8195,41.3633 67.5,36.5 Z"/></g>
<g><path style="opacity:1" fill="#4f6483" d="M 41.5,44.5 C 41.5,45.8333 41.5,47.1667 41.5,48.5C 43.1238,48.6399 44.2904,47.9733 45,46.5C 46.049,48.1066 47.549,48.7733 49.5,48.5C 49.6399,46.8762 48.9733,45.7096 47.5,45C 48.448,44.5172 49.448,44.3505 50.5,44.5C 50.5,47.1667 50.5,49.8333 50.5,52.5C 51.8221,52.67 52.9887,52.3366 54,51.5C 54.4224,53.4257 55.5891,54.4257 57.5,54.5C 53.9387,58.7041 49.6054,59.5375 44.5,57C 43.6195,56.2917 42.9528,55.4584 42.5,54.5C 43.5,54.5 44.5,54.5 45.5,54.5C 45.3433,53.1266 45.51,51.7932 46,50.5C 46.3176,52.0609 47.1509,53.2276 48.5,54C 47.6721,54.9147 46.6721,55.5814 45.5,56C 46.4162,56.3742 47.2496,56.8742 48,57.5C 49.2682,57.3842 50.6015,57.0509 52,56.5C 52.7494,55.365 52.5827,54.365 51.5,53.5C 50.914,53.7093 50.414,54.0426 50,54.5C 49.5065,52.8659 49.3398,51.1992 49.5,49.5C 46.8333,49.5 44.1667,49.5 41.5,49.5C 41.5,50.5 41.5,51.5 41.5,52.5C 40.1667,49.8333 40.1667,47.1667 41.5,44.5 Z"/></g>
<g><path style="opacity:0.957" fill="#facd5a" d="M 13.5,58.5 C 19.5824,58.8463 20.9157,61.513 17.5,66.5C 11.9334,67.2468 10.1,64.9134 12,59.5C 12.3826,58.944 12.8826,58.6107 13.5,58.5 Z"/></g>
<g><path style="opacity:1" fill="#735f50" d="M 50.5,62.5 C 54.97,61.5139 59.6367,61.1805 64.5,61.5C 64.5,63.8333 64.5,66.1667 64.5,68.5C 60.1667,68.5 55.8333,68.5 51.5,68.5C 55.2984,67.5166 59.2984,67.1832 63.5,67.5C 63.5,65.8333 63.5,64.1667 63.5,62.5C 59.1667,62.5 54.8333,62.5 50.5,62.5 Z"/></g>
<g><path style="opacity:1" fill="#6b5b54" d="M 45.5,62.5 C 43.3926,63.4682 41.0593,63.8016 38.5,63.5C 38.5,65.1667 38.5,66.8333 38.5,68.5C 41.5,68.5 44.5,68.5 47.5,68.5C 44.3752,69.4794 41.0419,69.8128 37.5,69.5C 37.5,67.1667 37.5,64.8333 37.5,62.5C 40.1667,62.5 42.8333,62.5 45.5,62.5 Z"/></g>
<g><path style="opacity:1" fill="#f5c757" d="M 45.5,62.5 C 47.1667,62.5 48.8333,62.5 50.5,62.5C 54.8333,62.5 59.1667,62.5 63.5,62.5C 63.5,64.1667 63.5,65.8333 63.5,67.5C 59.2984,67.1832 55.2984,67.5166 51.5,68.5C 50.1667,68.5 48.8333,68.5 47.5,68.5C 44.5,68.5 41.5,68.5 38.5,68.5C 38.5,66.8333 38.5,65.1667 38.5,63.5C 41.0593,63.8016 43.3926,63.4682 45.5,62.5 Z"/></g>
<g><path style="opacity:1" fill="#584344" d="M 63.5,72.5 C 55.7091,73.9208 47.7091,74.5875 39.5,74.5C 39.5,74.1667 39.5,73.8333 39.5,73.5C 47.4827,72.8345 55.4827,72.5012 63.5,72.5 Z"/></g>
<g><path style="opacity:0.835" fill="#facf5a" d="M 78.5,74.5 C 78.5,73.8333 78.8333,73.5 79.5,73.5C 80.8333,73.5 82.1667,73.5 83.5,73.5C 83.5,74.8333 83.5,76.1667 83.5,77.5C 82.1667,77.5 80.8333,77.5 79.5,77.5C 79.7373,76.209 79.404,75.209 78.5,74.5 Z"/></g>
<g><path style="opacity:0.878" fill="#ed3d53" d="M 23.5,84.5 C 24.8333,84.5 26.1667,84.5 27.5,84.5C 27.5,85.8333 27.5,87.1667 27.5,88.5C 26.1667,88.5 24.8333,88.5 23.5,88.5C 23.5,87.1667 23.5,85.8333 23.5,84.5 Z"/></g>
</svg>
